Genre:Thriller
Language:English  http://www.imdb.com/title/tt1465478/
Source:720p.BluRay.x264-HD4U


Format : Matroska
File size : 1.71 GiB
Duration : 1h 31mn
Overall bit rate : 2 681 Kbps


Video
Format settings, CABAC : Yes
Format settings, ReFrames : 4 frames
Codec ID : V_MPEG4/ISO/AVC
Duration : 1h 31mn
Bit rate : 2 300 Kbps
Width : 1 280 pixels
Height : 544 pixels
Display aspect ratio : 2.35:1
Frame rate mode : Variable
Frame rate : 23.976 fps
Color space : YUV
Chroma subsampling : 4:2:0
Bit depth : 8 bits
Scan type : Progressive
Bits/(Pixel*Frame) : 0.138
Stream size : 1.43 GiB (84%)
Writing library : x264


Audio
ID : 2
Format : AC-3
Format/Info : Audio Coding 3
Mode extension : CM (complete main)
Codec ID : A_AC3
Duration : 1h 31mn
Bit rate mode : Constant
Bit rate : 384 Kbps
Channel(s) : 6 channels
Channel positions : Front: L C R, Side: L R, LFE
Sampling rate : 48.0 KHz
Bit depth : 16 bits
Video delay : -1mn 5s
Stream size : 251 MiB (14%)
Language : English

Six people, each of them is on the road to self-destruction. They wake up in cells in a surreal facility, without knowing how they got there or why. Are they in denial? Are they crazy? What happened? As they try to figure things out, a mysterious man
forces the six abductees to participate in a disturbing experiment called the Trials. During the experiment, the unwilling participants will come to face disturbing truths about themselves and decide each others and fate in a game of dice. As the storyline unfolds, we discover that something greater connects them all
 
http://shareimage.org/images/0qxfbnureneqrn6j31n2.png 
http://shareimage.org/images/ohpsg0a1johhf4dlg3.png 
http://shareimage.org/images/7n81sva05hmgzcs02h65.png